<?xml version="1.0" encoding="UTF-8" standalone="no"?>
<!-- Created with Inkscape (http://www.inkscape.org/) -->

<svg
   width="73.423195mm"
   height="73.423195mm"
   viewBox="0 0 73.423195 73.423195"
   version="1.1"
   id="svg1"
   xmlns:xlink="http://www.w3.org/1999/xlink"
   xmlns="http://www.w3.org/2000/svg"
   xmlns:svg="http://www.w3.org/2000/svg">
  <defs
     id="defs1">
    <linearGradient
       id="swatch22">
      <stop
         style="stop-color:#000000;stop-opacity:1;"
         offset="0"
         id="stop22" />
    </linearGradient>
    <linearGradient
       id="swatch55">
      <stop
         style="stop-color:#000000;stop-opacity:1;"
         offset="0"
         id="stop55" />
    </linearGradient>
    <linearGradient
       id="FVT_Flow"
       data-name="FVT Flow"
       x1="264.60999"
       y1="357.81"
       x2="264.60999"
       y2="154.19"
       gradientUnits="userSpaceOnUse">
      <stop
         offset="0"
         stop-color="#f7931e"
         id="stop1" />
      <stop
         offset="1"
         stop-color="#ff3636"
         id="stop2" />
    </linearGradient>
    <linearGradient
       id="swatch4"
       gradientTransform="matrix(0.3321693,0,0,0.3321693,102.97455,-165.57979)">
      <stop
         style="stop-color:#101010;stop-opacity:1;"
         offset="0"
         id="stop4" />
    </linearGradient>
    <linearGradient
       id="swatch6">
      <stop
         style="stop-color:#ffffff;stop-opacity:1;"
         offset="0"
         id="stop7" />
    </linearGradient>
    <linearGradient
       id="swatch406"
       gradientTransform="matrix(1.4172193,0,0,1.4172193,-566.67226,-529.47944)">
      <stop
         style="stop-color:#ff9401;stop-opacity:1;"
         offset="0"
         id="stop406" />
    </linearGradient>
    <linearGradient
       xlink:href="#FVT_Flow"
       id="linearGradient230"
       gradientUnits="userSpaceOnUse"
       gradientTransform="matrix(0.84399898,0,0,0.84399901,-101.45887,327.55885)"
       x1="9.5754728"
       y1="146.95055"
       x2="96.569878"
       y2="146.95055" />
    <linearGradient
       xlink:href="#swatch6"
       id="linearGradient233"
       gradientUnits="userSpaceOnUse"
       x1="0"
       y1="256"
       x2="512"
       y2="256" />
    <linearGradient
       xlink:href="#swatch4"
       id="linearGradient234"
       gradientUnits="userSpaceOnUse"
       x1="50.269428"
       y1="255.995"
       x2="478.93057"
       y2="255.995" />
    <linearGradient
       xlink:href="#swatch4"
       id="linearGradient235"
       gradientUnits="userSpaceOnUse"
       x1="52.028629"
       y1="255.995"
       x2="477.17136"
       y2="255.995" />
  </defs>
  <g
     id="g230"
     transform="translate(93.377174,-414.87338)">
    <rect
       style="font-variation-settings:'wght' 600;fill:url(#linearGradient230);stroke:none;stroke-width:0.37655;stroke-linejoin:bevel"
       id="rect226"
       width="73.423195"
       height="73.423195"
       x="-93.377174"
       y="414.87338"
       ry="7.4530511" />
    <path
       d="M 56.049786,157.69874 V 354.29025 H 108.7415 v -71.09952 h 68.63854 l -15.80893,-43.1413 h -52.82254 v -39.20939 h 53.90099 l 56.24881,153.45021 h 50.95206 l 56.6908,-152.31873 h 22.08865 v 152.31873 l 0.0106,-0.0106 h 52.68818 V 201.96091 h 60.14182 V 157.69874 H 288.06022 L 245.02147,283.96862 202.64039,157.69874 Z"
       style="display:inline;fill:url(#linearGradient233)"
       id="path235"
       transform="matrix(0.14614863,0,0,0.14614863,-94.278177,414.17165)" />
    <path
       id="path228"
       d="M 464.98,154.19 H 285.55 L 250.95,255.7 216.88,154.19 H 52.53 V 357.8 h 71.43 v -59.39 h 74.26654 l 21.97979,59.39 H 283.98 l 52.33,-140.61 h 8.79 V 357.8 h 71.43 V 217.19 h 60.14 v -63 h -11.71 z m -300.96,82.35 h -40.05 v -20.47 h 44.29633 l 7.5,20.47 z M 348.63,354.29 V 201.97 H 326.54 L 269.85,354.29 H 218.9 L 162.65,200.84 h -53.9 v 39.21 h 52.82 l 15.81,43.14 h -68.64 v 71.1 H 56.05 V 157.7 h 146.59 l 42.38,126.27 43.04,-126.27 h 173.41 v 44.26 h -60.14 v 152.32 c -17.56439,0.0744 -35.14311,-0.1082 -52.7,0.01 z"
       style="display:inline;fill:url(#linearGradient234);stroke:url(#linearGradient235);stroke-width:10.9751;stroke-linecap:butt;stroke-linejoin:miter;stroke-dasharray:none;stroke-dashoffset:0;stroke-opacity:1;paint-order:normal"
       transform="matrix(0.14614863,0,0,0.14614863,-94.278177,414.17165)" />
  </g>
</svg>
