<?xml version="1.0" encoding="UTF-8" standalone="no"?><!DOCTYPE svg PUBLIC "-//W3C//DTD SVG 1.1//EN" "http://www.w3.org/Graphics/SVG/1.1/DTD/svg11.dtd"><svg width="100%" height="100%" viewBox="0 0 400 93" version="1.1" xmlns="http://www.w3.org/2000/svg" xmlns:xlink="http://www.w3.org/1999/xlink" xml:space="preserve" xmlns:serif="http://www.serif.com/" style="fill-rule:evenodd;clip-rule:evenodd;stroke-linejoin:round;stroke-miterlimit:2;"><rect id="Onshape" x="0" y="-0" width="400" height="92.393" style="fill:none;"/><clipPath id="_clip1"><rect x="0" y="-0" width="400" height="92.393"/></clipPath><g clip-path="url(#_clip1)"><g><path d="M394.197,28.47c0.79,-0 1.519,0.152 2.188,0.455c0.698,0.304 1.276,0.699 1.792,1.216c0.517,0.516 0.912,1.124 1.216,1.792c0.303,0.699 0.455,1.429 0.455,2.188c0,0.76 -0.152,1.519 -0.455,2.188c-0.304,0.668 -0.699,1.276 -1.216,1.792c-0.516,0.517 -1.124,0.912 -1.792,1.216c-0.699,0.304 -1.428,0.456 -2.188,0.456c-0.76,-0 -1.519,-0.152 -2.188,-0.456c-0.668,-0.304 -1.276,-0.699 -1.792,-1.216c-0.517,-0.516 -0.912,-1.093 -1.216,-1.792c-0.304,-0.669 -0.455,-1.398 -0.455,-2.188c-0,-0.79 0.151,-1.519 0.455,-2.188c0.304,-0.698 0.699,-1.276 1.216,-1.792c0.516,-0.517 1.094,-0.912 1.792,-1.216c0.669,-0.303 1.398,-0.455 2.188,-0.455Zm-0,10.452c1.337,-0 2.491,-0.486 3.433,-1.428c0.942,-0.942 0.79,-0.942 1.033,-1.55c0.243,-0.577 0.365,-1.215 0.365,-1.884c0,-0.668 -0.122,-1.276 -0.365,-1.883c-0.243,-0.578 -0.607,-1.094 -1.033,-1.55c-0.942,-0.942 -2.096,-1.428 -3.433,-1.428c-1.337,-0 -2.491,0.486 -3.403,1.428c-0.942,0.942 -1.428,2.096 -1.428,3.433c-0,1.337 0.121,1.276 0.365,1.884c0.243,0.577 0.607,1.094 1.033,1.55c0.911,0.942 2.066,1.428 3.403,1.428l0.03,-0Zm2.765,-6.107c-0,0.364 -0.122,0.698 -0.334,1.002c-0.213,0.304 -0.517,0.486 -0.912,0.608c0.608,0.182 0.972,0.668 1.094,1.489c0.03,0.212 0.061,0.395 0.061,0.547l-0,0.759l-1.124,0l-0,-0.638c-0,-0.486 -0.061,-0.82 -0.152,-1.033c-0.213,-0.425 -0.578,-0.668 -1.125,-0.668l-1.61,-0l0,2.309l-1.154,-0l-0,-6.29l2.673,0c0.881,0 1.55,0.183 1.945,0.517c0.395,0.334 0.608,0.79 0.608,1.337l0.03,0.061Zm-2.643,1.154c0.455,0 0.82,-0.091 1.093,-0.273c0.274,-0.183 0.426,-0.426 0.426,-0.729c-0,-0.304 -0.122,-0.578 -0.335,-0.76c-0.212,-0.182 -0.638,-0.274 -1.215,-0.274l-1.398,0l0,2.036l1.429,0Z" style="fill:#fff;fill-rule:nonzero;"/><g><path d="M129.34,27.892c5.257,0 9.541,1.763 12.822,5.287c3.1,3.373 4.649,7.687 4.649,12.883c0,5.196 -1.549,9.51 -4.649,12.883c-3.281,3.524 -7.565,5.287 -12.822,5.287c-5.256,-0 -9.54,-1.763 -12.822,-5.287c-3.099,-3.373 -4.648,-7.687 -4.648,-12.883c-0,-5.196 1.549,-9.51 4.648,-12.883c3.282,-3.524 7.566,-5.287 12.822,-5.287Zm0,31.569c3.798,0 6.806,-1.306 9.024,-3.95c2.127,-2.491 3.16,-5.651 3.16,-9.449c0,-3.798 -1.063,-6.958 -3.16,-9.449c-2.218,-2.644 -5.226,-3.95 -9.024,-3.95c-3.798,-0 -6.806,1.306 -9.024,3.95c-2.127,2.491 -3.16,5.651 -3.16,9.449c0,3.798 1.064,6.958 3.16,9.449c2.218,2.644 5.226,3.95 9.024,3.95Z" style="fill:#fff;fill-rule:nonzero;"/><path d="M159.056,28.439l-0,5.5c1.276,-1.702 2.826,-3.13 4.649,-4.284c1.823,-1.185 3.919,-1.763 6.259,-1.763c2.339,0 4.375,0.335 6.046,0.973c1.702,0.668 3.16,1.64 4.436,2.947c2.917,2.856 4.375,6.654 4.375,11.333l0,20.509l-5.286,0l-0,-20.357c-0,-3.251 -0.912,-5.834 -2.735,-7.748c-1.823,-1.914 -4.193,-2.886 -7.11,-2.886c-2.917,-0 -5.469,0.972 -7.535,2.947c-2.066,2.005 -3.099,4.618 -3.099,7.748l-0,20.296l-5.287,0l0,-35.215l5.287,0Z" style="fill:#fff;fill-rule:nonzero;"/><path d="M214.385,37.889c-0.456,-3.677 -3.403,-5.5 -8.842,-5.5c-5.438,0 -8.143,1.702 -8.143,5.074c0,3.373 0.578,2.492 1.732,3.221c1.155,0.729 2.583,1.337 4.345,1.793c1.732,0.455 3.616,0.911 5.682,1.306c2.036,0.395 3.919,0.972 5.682,1.702c1.732,0.729 3.19,1.732 4.345,3.008c1.154,1.276 1.732,3.008 1.732,5.226c-0,3.433 -1.307,6.046 -3.89,7.869c-2.582,1.823 -6.076,2.704 -10.512,2.704c-4.437,0 -8.447,-1.185 -11.212,-3.524c-2.552,-2.066 -3.889,-4.77 -4.102,-8.113l5.5,0c0.334,3.251 2.157,5.439 5.499,6.563c1.215,0.365 2.431,0.578 3.616,0.578c1.185,-0 2.309,-0.061 3.342,-0.213c1.033,-0.152 2.036,-0.395 3.038,-0.79c2.249,-0.881 3.373,-2.431 3.373,-4.588c-0,-2.157 -0.577,-2.583 -1.732,-3.342c-1.155,-0.79 -2.583,-1.398 -4.345,-1.915c-1.732,-0.486 -3.616,-0.941 -5.682,-1.336c-2.035,-0.395 -3.95,-0.942 -5.681,-1.641c-1.732,-0.699 -3.191,-1.671 -4.345,-2.887c-1.155,-1.215 -1.732,-2.916 -1.732,-5.074c-0,-3.19 1.154,-5.682 3.494,-7.444c2.34,-1.762 5.773,-2.643 10.33,-2.643c4.558,-0 7.718,1.033 10.209,3.099c2.067,1.732 3.252,4.041 3.586,6.897l-5.348,0l0.061,-0.03Z" style="fill:#fff;fill-rule:nonzero;"/><path d="M232.919,14.372l0,19.597c1.276,-1.701 2.826,-3.129 4.649,-4.284c1.823,-1.185 3.919,-1.762 6.259,-1.762c2.34,-0 4.375,0.334 6.046,0.972c1.702,0.669 3.16,1.641 4.436,2.947c2.917,2.856 4.376,6.654 4.376,11.334l-0,20.509l-5.287,-0l-0,-20.358c-0,-3.251 -0.912,-5.833 -2.735,-7.747c-1.823,-1.915 -4.193,-2.887 -7.109,-2.887c-2.917,0 -5.47,0.972 -7.536,2.947c-2.066,2.006 -3.099,4.619 -3.099,7.748l0,20.297l-5.287,-0l0,-49.313l5.287,-0Z" style="fill:#fff;fill-rule:nonzero;"/><path d="M294.994,58.033c-2.826,4.132 -7.019,6.199 -12.61,6.199c-5.59,-0 -9.206,-1.763 -12.396,-5.287c-3.1,-3.464 -4.649,-7.779 -4.649,-12.883c-0,-5.105 1.549,-9.419 4.649,-12.883c3.19,-3.524 7.444,-5.287 12.761,-5.287c5.317,0 9.388,2.097 12.245,6.259l-0,-5.712l5.286,0l0,35.215l-5.286,0l-0,-5.651l-0,0.03Zm-11.911,1.428c3.798,0 6.806,-1.306 9.024,-3.95c2.127,-2.491 3.16,-5.651 3.16,-9.449c-0,-3.798 -1.063,-6.958 -3.16,-9.449c-2.218,-2.644 -5.226,-3.95 -9.024,-3.95c-3.798,-0 -6.806,1.306 -9.146,3.95c-2.218,2.491 -3.311,5.651 -3.311,9.449c-0,3.798 1.093,6.958 3.311,9.449c2.34,2.644 5.409,3.95 9.146,3.95Z" style="fill:#fff;fill-rule:nonzero;"/><path d="M314.713,34.091c2.825,-4.132 7.018,-6.199 12.609,-6.199c5.591,0 9.176,1.763 12.336,5.287c3.16,3.464 4.709,7.778 4.709,12.883c0,5.104 -1.58,9.419 -4.709,12.883c-3.16,3.524 -7.383,5.287 -12.67,5.287c-5.287,-0 -9.389,-2.097 -12.275,-6.26l-0,19.659l-5.287,-0l-0,-49.192l5.287,0l-0,5.652Zm11.91,-1.428c-3.798,-0 -6.806,1.306 -9.024,3.95c-2.127,2.491 -3.16,5.651 -3.16,9.449c0,3.798 1.064,6.958 3.16,9.449c2.218,2.644 5.226,3.95 9.024,3.95c3.798,0 6.806,-1.306 9.146,-3.95c2.218,-2.491 3.312,-5.651 3.312,-9.449c-0,-3.798 -1.094,-6.958 -3.312,-9.449c-2.34,-2.644 -5.409,-3.95 -9.146,-3.95Z" style="fill:#fff;fill-rule:nonzero;"/><path d="M367.003,59.461c4.74,0 8.143,-1.975 10.209,-5.925l5.773,0c-1.215,3.191 -3.16,5.773 -5.803,7.748c-2.643,1.975 -6.077,2.948 -10.239,2.948c-4.163,-0 -9.632,-1.763 -12.974,-5.287c-3.251,-3.434 -4.862,-7.718 -4.862,-12.883c0,-5.165 1.55,-9.51 4.649,-12.883c3.281,-3.524 7.566,-5.287 12.822,-5.287c5.256,0 9.541,1.763 12.822,5.287c3.099,3.373 4.649,7.687 4.649,12.883l-0,2.127l-29.533,-0c0.364,3.251 1.671,5.925 3.889,8.021c2.248,2.157 5.104,3.251 8.598,3.251Zm-0.425,-26.798c-3.251,-0 -5.955,1.002 -8.173,3.038c-2.066,1.914 -3.342,4.436 -3.798,7.535l23.942,0c-0.455,-3.099 -1.732,-5.621 -3.798,-7.535c-2.218,-2.005 -4.922,-3.038 -8.173,-3.038Z" style="fill:#fff;fill-rule:nonzero;"/></g></g><path d="M51.861,9.146l-15.131,-8.721l-39.134,22.606l-0,20.236l15.526,9.206l-0,-20.904l38.739,-22.423Z" style="fill:#40aa1d;fill-rule:nonzero;"/><path d="M-2.404,49.921l-0,18.534l39.347,22.697l17.228,-9.905l-0,-19.021l-17.441,11.364l-39.134,-23.669Z" style="fill:#40aa1d;fill-rule:nonzero;"/><path d="M60.004,32.572l-18.291,-10.544l16.164,-9.388l18.383,10.513l-0,45.302l-16.286,9.389l0.03,-45.272Z" style="fill:#40aa1d;fill-rule:nonzero;"/><path d="M42.716,29.199l-6.624,-3.828l-17.197,9.935l-0,8.872l6.775,4.011l0,-9.115l17.046,-9.875Z" style="fill:#fff;fill-rule:nonzero;"/><path d="M18.895,47.763l-0,8.113l17.835,10.726l7.353,-4.528l0,-8.143l-7.353,4.68l-17.835,-10.848Z" style="fill:#fff;fill-rule:nonzero;"/><path d="M47.03,39.985l-8.143,-4.709l7.141,-4.163l8.143,4.679l-0,19.902l-7.141,4.497l0,-20.206Z" style="fill:#fff;fill-rule:nonzero;"/></g></svg>