<?xml version="1.0" encoding="UTF-8" standalone="no"?>
<!-- Created with Inkscape (http://www.inkscape.org/) -->

<svg
   width="62.648239mm"
   height="30.418079mm"
   viewBox="0 0 62.648239 30.418079"
   version="1.1"
   id="svg1"
   xmlns:xlink="http://www.w3.org/1999/xlink"
   xmlns="http://www.w3.org/2000/svg"
   xmlns:svg="http://www.w3.org/2000/svg">
  <defs
     id="defs1">
    <linearGradient
       id="swatch22">
      <stop
         style="stop-color:#000000;stop-opacity:1;"
         offset="0"
         id="stop22" />
    </linearGradient>
    <linearGradient
       id="swatch55">
      <stop
         style="stop-color:#000000;stop-opacity:1;"
         offset="0"
         id="stop55" />
    </linearGradient>
    <linearGradient
       id="swatch4"
       gradientTransform="matrix(0.3321693,0,0,0.3321693,102.97455,-165.57979)">
      <stop
         style="stop-color:#101010;stop-opacity:1;"
         offset="0"
         id="stop4" />
    </linearGradient>
    <linearGradient
       id="swatch6">
      <stop
         style="stop-color:#ffffff;stop-opacity:1;"
         offset="0"
         id="stop7" />
    </linearGradient>
    <linearGradient
       id="swatch406"
       gradientTransform="matrix(1.4172193,0,0,1.4172193,-566.67226,-529.47944)">
      <stop
         style="stop-color:#ff9401;stop-opacity:1;"
         offset="0"
         id="stop406" />
    </linearGradient>
    <linearGradient
       xlink:href="#swatch6"
       id="linearGradient225"
       gradientUnits="userSpaceOnUse"
       x1="0"
       y1="256"
       x2="512"
       y2="256" />
    <linearGradient
       xlink:href="#swatch4"
       id="linearGradient226"
       gradientUnits="userSpaceOnUse"
       x1="52.028629"
       y1="255.995"
       x2="477.17136"
       y2="255.995" />
  </defs>
  <g
     id="g223"
     transform="translate(-112.84878,-177.02496)">
    <path
       d="m 56.048313,157.69842 v 196.59152 h 52.691717 v -71.09953 h 68.63854 l -15.80893,-43.1413 h -52.819 v -39.20939 h 53.90098 l 56.24881,153.45022 h 50.94853 l 56.6908,-152.31874 h 22.08865 v 152.31874 l 0.0106,-0.0106 h 52.69171 V 201.96059 h 60.13829 V 157.69842 H 288.05875 L 245.01999,283.96831 202.63891,157.69842 Z"
       style="display:inline;fill:url(#linearGradient225)"
       id="path226"
       transform="matrix(0.14614863,0,0,0.14614862,105.50198,154.82068)" />
    <path
       id="path222"
       d="M 464.98,154.19 H 285.55 L 250.95,255.7 216.88,154.19 H 52.53 V 357.8 h 71.43 v -59.39 h 74.26654 l 21.97979,59.39 H 283.98 l 52.33,-140.61 h 8.79 V 357.8 h 71.43 V 217.19 h 60.14 v -63 h -11.71 z m -300.96,82.35 h -40.05 v -20.47 h 44.29633 l 7.5,20.47 z M 348.63,354.29 V 201.97 H 326.54 L 269.85,354.29 H 218.9 L 162.65,200.84 h -53.9 v 39.21 h 52.82 l 15.81,43.14 h -68.64 v 71.1 H 56.05 V 157.7 h 146.59 l 42.38,126.27 43.04,-126.27 h 173.41 v 44.26 h -60.14 v 152.32 h -52.69 z"
       style="display:inline;fill:url(#swatch4);stroke:url(#linearGradient226);stroke-width:4.52114;stroke-dasharray:none;stroke-opacity:1"
       transform="matrix(0.14614863,0,0,0.14614862,105.50197,154.82068)" />
  </g>
</svg>
