<?xml version="1.0" encoding="UTF-8" standalone="no"?><!DOCTYPE svg PUBLIC "-//W3C//DTD SVG 1.1//EN" "http://www.w3.org/Graphics/SVG/1.1/DTD/svg11.dtd"><svg width="100%" height="100%" viewBox="0 0 144 144" version="1.1" xmlns="http://www.w3.org/2000/svg" xmlns:xlink="http://www.w3.org/1999/xlink" xml:space="preserve" xmlns:serif="http://www.serif.com/" style="fill-rule:evenodd;clip-rule:evenodd;stroke-linejoin:round;stroke-miterlimit:2;"><rect id="x144-SVG---PNG" serif:id="x144 SVG &amp; PNG" x="0" y="0" width="144" height="144" style="fill:none;"/><path id="Gradient-BG" serif:id="Gradient BG" d="M144,21.6l0,100.8c0,11.921 -9.679,21.6 -21.6,21.6l-100.8,-0c-11.921,-0 -21.6,-9.679 -21.6,-21.6l0,-100.8c0,-11.921 9.679,-21.6 21.6,-21.6l100.8,-0c11.921,-0 21.6,9.679 21.6,21.6Z" style="fill:url(#_Linear1);"/><path id="FVT-Shadow" serif:id="FVT Shadow" d="M34.335,102.797l-21.63,-0l-0,-61.594l45.822,0l11.398,29.6l11.331,-29.6l52.86,0l-0,16.03l-0,1.914l-0,2.784l-15.901,0l0,40.866l-21.63,-0l-0,-42.076l-16.723,42.076l-19.841,-0l-7.42,-18.617l-18.266,-0l0,18.617Zm0,-39.329l10.01,0l-0.612,-1.537l-9.398,0l0,1.537Z"/><path id="FVT-Foreground" serif:id="FVT Foreground" d="M47.026,77.193l-19.73,0l-0,21.385l-10.373,0l0,-53.156l35.888,-0l15.719,40.825l15.629,-40.825l42.918,-0l-0,9.506l-15.901,0l0,43.65l-10.372,0l-0,-43.65l-9.277,0l-17.348,43.65l-11.298,0l-17.398,-43.65l-18.187,0l-0,12.759l15.95,-0l3.78,9.506Z" style="fill:#fff;"/><defs><linearGradient id="_Linear1" x1="0" y1="0" x2="1" y2="0" gradientUnits="userSpaceOnUse" gradientTransform="matrix(144,0,0,144,2.84217e-14,72)"><stop offset="0" style="stop-color:#ff9401;stop-opacity:1"/><stop offset="1" style="stop-color:#ff3636;stop-opacity:1"/></linearGradient></defs></svg>